<svg width="188" height="24" viewBox="0 0 188 24" fill="none" xmlns="http://www.w3.org/2000/svg">
<path fill-rule="evenodd" clip-rule="evenodd" d="M99.0001 5.29216H93.7592L92.3791 13.5093C92.1636 14.8328 91.3387 15.7277 90.0751 15.7277C88.8911 15.7277 88.3282 14.8249 88.5786 13.4894L89.9586 5.29216H84.7178L83.2834 13.8248C82.5749 18.1467 84.4965 20.1429 87.3828 20.1429C88.8891 20.1429 90.3585 19.623 91.6027 18.0633L91.298 19.8889H96.5388L98.9942 5.28223L99.0001 5.29216Z" fill="white"/>
<path fill-rule="evenodd" clip-rule="evenodd" d="M61.0067 5.002C56.4316 4.98811 53.256 7.9289 52.6135 12.3956C51.9031 16.9834 54.8166 20.1524 59.1859 20.1524C63.4679 20.1524 66.9502 17.3307 67.5111 12.1377C67.944 8.00628 65.0635 5.02978 61.0067 5.002ZM62.5129 12.598C62.2353 14.4871 60.9795 15.9119 59.547 15.9119C58.1145 15.9119 57.2701 14.4871 57.5477 12.598C57.8253 10.7089 59.0831 9.2782 60.5156 9.2782C61.9481 9.2782 62.7905 10.7029 62.5129 12.598Z" fill="white"/>
<path fill-rule="evenodd" clip-rule="evenodd" d="M45.4318 5.002C40.8568 4.98811 37.6793 7.9289 37.0387 12.3956C36.3283 16.9834 39.2418 20.1524 43.6111 20.1524C47.8931 20.1524 51.3753 17.3307 51.9344 12.1377C52.3672 8.00628 49.4886 5.02978 45.4318 5.002ZM46.9381 12.598C46.6605 14.4871 45.4046 15.9119 43.9702 15.9119C42.5358 15.9119 41.6953 14.4871 41.9729 12.598C42.2504 10.7089 43.5063 9.2782 44.9407 9.2782C46.3752 9.2782 47.2137 10.7029 46.9381 12.598Z" fill="white"/>
<path fill-rule="evenodd" clip-rule="evenodd" d="M67.0852 19.8802H72.326L73.7081 11.6651C73.9235 10.3395 74.7485 9.4446 76.0102 9.4446C77.1942 9.4446 77.7571 10.3495 77.5086 11.6829L76.1285 19.8802H81.3694L82.8019 11.3377C83.5123 7.01579 81.5907 5.01953 78.7024 5.01953C77.1981 5.01953 75.7287 5.53942 74.4845 7.09911L74.7892 5.27353H69.5484L67.0929 19.8802H67.0852Z" fill="white"/>
<path fill-rule="evenodd" clip-rule="evenodd" d="M20.6545 19.8802H25.8954L27.2755 11.6651C27.4909 10.3395 28.3159 9.4446 29.5795 9.4446C30.7635 9.4446 31.3265 10.3495 31.0761 11.6829L29.696 19.8802H34.9368L36.3712 11.3377C37.0817 7.01579 35.16 5.01953 32.2718 5.01953C30.7655 5.01953 29.2981 5.53942 28.0539 7.09911L28.3586 5.27353H23.1178L20.6604 19.8802H20.6545Z" fill="white"/>
<path fill-rule="evenodd" clip-rule="evenodd" d="M67.0852 19.8802H72.326L73.7081 11.6651C73.9235 10.3395 74.7485 9.4446 76.0102 9.4446C77.1942 9.4446 77.7571 10.3495 77.5086 11.6829L76.1285 19.8802H81.3694L82.8019 11.3377C83.5123 7.01579 81.5907 5.01953 78.7024 5.01953C77.1981 5.01953 75.7287 5.53942 74.4845 7.09911L74.7892 5.27353H69.5484L67.0929 19.8802H67.0852Z" fill="white"/>
<path d="M11.6451 5.78963C11.6451 4.87527 12.4814 4.30602 13.8861 4.30602C16.0669 4.30602 17.9062 5.36123 19.3187 6.706L21.9981 3.11596C19.9027 1.03534 17.0913 0 13.8861 0H0C0.648029 3.07829 2.64452 5.26403 5.85944 6.14864C5.02894 6.37313 4.2417 6.73997 3.53119 7.23357C4.56338 8.94131 6.79072 10.3198 9.49925 11.3393C10.0949 11.5634 10.7293 11.7677 11.391 11.9839C13.7483 12.7594 15.3587 13.1879 15.3587 14.3482C15.3587 15.1891 14.5302 15.8238 13.1081 15.8238C10.4985 15.8238 8.38946 14.7429 6.47253 12.9558L3.65148 16.7421C6.06704 18.9775 9.2121 20.2429 12.8461 20.2429C17.9935 20.2429 20.8611 17.3253 20.8611 13.7174C20.8611 10.0282 17.3687 8.70528 14.6796 7.78299C12.7569 7.12052 11.6451 6.6544 11.6451 5.78963Z" fill="white"/>
<path d="M106.545 20.2432V10.5452H106.558L111.485 17.5392L110.952 17.4352L115.866 10.5452H115.892V20.2432H114.644V13.4052L114.722 14.0422L111.173 19.0602H111.147L107.546 14.0422L107.767 13.4572V20.2432H106.545ZM119.593 10.8442H125.703V12.0532H120.854V14.9132H125.183V16.1222H120.854V19.0342H125.885V20.2432H119.593V10.8442ZM131.57 10.8442C132.046 10.8442 132.484 10.9092 132.883 11.0392C133.29 11.1605 133.641 11.3468 133.936 11.5982C134.239 11.8408 134.473 12.1442 134.638 12.5082C134.811 12.8635 134.898 13.2795 134.898 13.7562C134.898 14.1288 134.841 14.4928 134.729 14.8482C134.625 15.2035 134.447 15.5285 134.196 15.8232C133.944 16.1092 133.615 16.3432 133.208 16.5252C132.809 16.6985 132.315 16.7852 131.726 16.7852H130.335V20.2432H129.074V10.8442H131.57ZM131.7 15.5762C132.072 15.5762 132.38 15.5198 132.623 15.4072C132.874 15.2945 133.069 15.1515 133.208 14.9782C133.346 14.7962 133.446 14.6012 133.507 14.3932C133.567 14.1852 133.598 13.9902 133.598 13.8082C133.598 13.6175 133.563 13.4225 133.494 13.2232C133.433 13.0152 133.329 12.8245 133.182 12.6512C133.043 12.4778 132.857 12.3348 132.623 12.2222C132.397 12.1095 132.12 12.0532 131.791 12.0532H130.335V15.5762H131.7ZM133.247 16.2912L135.704 20.2432H134.248L131.752 16.3302L133.247 16.2912ZM145.343 19.5412C145.187 19.6452 144.975 19.7622 144.706 19.8922C144.437 20.0222 144.121 20.1305 143.757 20.2172C143.402 20.3038 143.012 20.3472 142.587 20.3472C141.859 20.3385 141.2 20.2085 140.611 19.9572C140.03 19.7058 139.536 19.3635 139.129 18.9302C138.722 18.4968 138.405 17.9985 138.18 17.4352C137.963 16.8632 137.855 16.2565 137.855 15.6152C137.855 14.9132 137.968 14.2675 138.193 13.6782C138.427 13.0802 138.752 12.5645 139.168 12.1312C139.584 11.6892 140.074 11.3468 140.637 11.1042C141.209 10.8615 141.833 10.7402 142.509 10.7402C143.072 10.7402 143.584 10.8182 144.043 10.9742C144.502 11.1215 144.897 11.2992 145.226 11.5072L144.719 12.6772C144.459 12.5038 144.143 12.3392 143.77 12.1832C143.406 12.0272 142.999 11.9492 142.548 11.9492C142.089 11.9492 141.655 12.0402 141.248 12.2222C140.841 12.4042 140.481 12.6598 140.169 12.9892C139.857 13.3185 139.61 13.7042 139.428 14.1462C139.255 14.5795 139.168 15.0475 139.168 15.5502C139.168 16.0615 139.246 16.5382 139.402 16.9802C139.567 17.4135 139.796 17.7905 140.091 18.1112C140.394 18.4318 140.758 18.6832 141.183 18.8652C141.608 19.0472 142.084 19.1382 142.613 19.1382C143.09 19.1382 143.514 19.0645 143.887 18.9172C144.26 18.7698 144.567 18.6052 144.81 18.4232L145.343 19.5412ZM155.902 10.8442V20.2432H154.654V16.1222H149.727V20.2432H148.466V10.8442H149.727V14.9262H154.654V10.8442H155.902ZM158.674 20.2432L162.782 10.4542H162.86L166.955 20.2432H165.512L162.444 12.4302L163.341 11.8452L159.909 20.2432H158.674ZM161.079 16.6812H164.576L164.992 17.7732H160.715L161.079 16.6812ZM177.863 20.5422L170.596 13.1712L170.96 13.2622L170.986 20.2432H169.725V10.5582H169.79L176.979 17.9552L176.68 17.8902L176.654 10.8442H177.902V20.5422H177.863ZM180.916 10.8442H187.156V12.0532H184.634V20.2432H183.373V12.0532H180.916V10.8442Z" fill="white"/>
</svg>
